# xmcd CD database file
#
# Track frame offsets:
#	150
#	31077
#	57073
#	90079
#	124720
#	159141
#	184020
#
# Disc length: 2570 seconds
#
# Revision: 0
# Processed by: cddbd v1.5.2PL0 Copyright (c) Steve Scherf et al.
# Submitted via: CDex 1.70beta2
#
DISCID=3f0a0807
DTITLE=Paul Renz - Beyond Blues
DYEAR=2006
DGENRE=Jazz
TTITLE0=Beyond Blues
TTITLE1=Yardbird Suite
TTITLE2=Since I Fell For You
TTITLE3=I'll Remember April
TTITLE4=Early Morning
TTITLE5=11th and LaSalle
TTITLE6=I'll Follow The Sun
EXTD=YEAR: 2006
EXTT0=
EXTT1=
EXTT2=
EXTT3=
EXTT4=
EXTT5=
EXTT6=
PLAYORDER=
